<?xml version="1.0" standalone="no"?>
<!DOCTYPE svg PUBLIC "-//W3C//DTD SVG 20010904//EN"
 "http://www.w3.org/TR/2001/REC-SVG-20010904/DTD/svg10.dtd">
<svg version="1.0" xmlns="http://www.w3.org/2000/svg"
 width="512.000000pt" height="512.000000pt" viewBox="0 0 512.000000 512.000000"
 preserveAspectRatio="xMidYMid meet">

<g transform="translate(0.000000,512.000000) scale(0.100000,-0.100000)"
fill="#ef233c" stroke="none">
<path d="M2395 5114 c-297 -29 -443 -63 -628 -145 -405 -180 -658 -503 -759
-969 l-23 -105 0 -1335 0 -1335 23 -105 c86 -397 280 -687 584 -876 270 -167
558 -238 968 -238 333 0 559 41 793 145 405 180 658 503 759 969 l23 105 0
1335 0 1335 -23 105 c-86 396 -279 686 -583 875 -190 118 -378 183 -634 221
-99 14 -422 26 -500 18z m85 -459 c0 -273 -1 -296 -17 -301 -107 -33 -192
-104 -239 -199 l-29 -60 0 -325 0 -325 29 -60 c39 -80 108 -145 190 -181 l66
-28 0 -354 0 -353 25 -24 c15 -16 36 -25 55 -25 19 0 40 9 55 25 l25 24 0 353
0 354 66 28 c82 36 151 101 190 181 l29 60 0 325 0 325 -29 60 c-47 95 -132
166 -238 199 -17 5 -18 28 -18 302 l0 297 107 -7 c664 -43 1102 -414 1208
-1025 23 -128 22 -2597 0 -2727 -88 -509 -413 -857 -913 -975 -277 -66 -687
-66 -964 0 -439 104 -748 388 -872 801 -57 192 -56 151 -56 1540 0 1077 2
1291 15 1361 61 350 232 627 498 805 189 127 487 215 755 222 l62 2 0 -295z
m165 -474 c51 -23 101 -79 114 -128 6 -22 11 -145 11 -293 0 -288 -4 -307 -75
-368 -47 -42 -74 -52 -135 -52 -61 0 -88 10 -135 52 -71 61 -75 80 -75 368 0
148 5 271 11 293 22 81 111 147 199 147 25 0 63 -9 85 -19z"/>
</g>
</svg>
